<svg width="20" height="20" viewBox="0 0 20 20" fill="none" xmlns="http://www.w3.org/2000/svg">
<g clip-path="url(#clip0_3151_6714)">
<path d="M6.25 6.6875C6.96594 6.6875 7.59656 6.49207 8.11731 6.24268C7.58862 7.23743 7.27185 8.38892 7.20898 9.57642C5.09509 9.80334 3.4375 11.5768 3.4375 13.75C3.4375 16.0763 5.32996 18 7.65625 18C8.37292 18 9.05945 17.7981 9.67517 17.4603C8.71997 16.5239 8.125 15.1902 8.125 13.75C8.125 12.3098 8.71997 11.0073 9.67517 10.0709C9.20105 9.81079 8.68445 9.63391 8.14502 9.56519C8.34888 6.25195 10.8511 3.51904 14.0773 3.02039C13.2556 4.17395 12.8125 5.55042 12.8125 6.99561V9.57861C10.7089 9.81531 9.0625 11.5841 9.0625 13.75C9.0625 16.0763 10.955 18 13.2812 18C15.6075 18 17.5 16.0763 17.5 13.75C17.5 11.5841 15.8536 9.81531 13.75 9.57861V6.99561C13.75 5.41077 14.3671 3.92078 15.4877 2.80017L16.2878 2H15.1562C12.9546 2 10.9592 2.89783 9.5155 4.34607C9.13647 3.98218 7.92114 2.9375 6.25 2.9375C4.27246 2.9375 2.91931 4.41101 2.85388 4.47375L2.5 4.8125L2.85388 5.15125C2.91931 5.21399 4.27246 6.6875 6.25 6.6875ZM13.2812 12.3438C12.5059 12.3438 11.875 12.9746 11.875 13.75H10.9375C10.9375 12.4578 11.989 11.4062 13.2812 11.4062V12.3438ZM7.65625 12.3438C6.88086 12.3438 6.25 12.9746 6.25 13.75H5.3125C5.3125 12.4578 6.36401 11.4062 7.65625 11.4062V12.3438Z" fill="white"/>
</g>
<defs>
<clipPath id="clip0_3151_6714">
<rect width="16" height="16" fill="white" transform="translate(2 2)"/>
</clipPath>
</defs>
</svg>
