<svg width="20" height="20" viewBox="0 0 20 20" fill="none" xmlns="http://www.w3.org/2000/svg">
<g clip-path="url(#clip0_3154_4647)">
<path fill-rule="evenodd" clip-rule="evenodd" d="M13.8294 11.7258C13.8294 11.7258 15.2467 13.8958 15.2467 15.3365C15.2467 16.3478 14.4254 17.1698 13.4134 17.1698C12.4014 17.1698 11.5801 16.3478 11.5801 15.3365C11.5801 13.8958 12.9974 11.7258 12.9974 11.7258C13.0901 11.5865 13.2461 11.5032 13.4134 11.5032C13.5807 11.5032 13.7367 11.5865 13.8294 11.7258Z" fill="#A6A6A6"/>
<path fill-rule="evenodd" clip-rule="evenodd" d="M14.7167 9.25391C15.99 9.53324 16.6453 10.4279 16.9913 11.0839C16.998 11.0979 17.0047 11.1112 17.0107 11.1252C17.138 11.4326 17.104 11.7839 16.9193 12.0606C16.734 12.3372 16.4233 12.5032 16.0907 12.5032H14.5693L14.8907 10.8986C14.9053 10.8232 14.9133 10.7466 14.9133 10.6699C14.9133 10.1792 14.8447 9.70391 14.7167 9.25391Z" fill="#A6A6A6"/>
<path fill-rule="evenodd" clip-rule="evenodd" d="M4.63417 9.66459C4.30417 9.33059 3.93684 8.91126 3.66817 8.47326C3.3535 7.95926 3.1795 7.41459 3.2515 6.92926C3.3995 5.93393 3.90817 5.52126 4.62684 5.24926C5.00217 5.10659 5.44817 5.01059 5.9295 4.85926C6.44217 4.69793 6.51084 4.38393 6.64684 4.10859C6.81684 3.76326 7.03217 3.44059 7.54217 3.21326C8.1495 2.94193 8.67884 3.04326 9.17084 3.22593C9.4815 3.34059 9.7615 3.51926 10.0522 3.50393C10.2748 3.49126 10.3688 3.38259 10.4955 3.28726C10.7515 3.09459 11.0555 2.89126 11.7048 2.83793C12.3342 2.78659 12.6322 2.97926 12.8662 3.22459C12.9468 3.30993 13.0182 3.40659 13.0935 3.50659C13.1915 3.63593 13.3028 3.77926 13.5595 3.85859C13.9208 3.96926 14.2895 3.99859 14.6275 4.07526C15.3075 4.22993 15.8948 4.52193 16.2208 5.51326C16.4368 6.16993 16.2348 6.90726 15.7662 7.52726C15.4335 7.96726 14.9702 8.33859 14.4702 8.57659C13.6662 6.76659 11.8528 5.50326 9.74617 5.50326C7.6295 5.50326 5.80817 6.77859 5.01017 8.60193C4.99884 8.62859 4.98817 8.65593 4.97884 8.68326L4.63417 9.66459Z" fill="#A6A6A6"/>
<path fill-rule="evenodd" clip-rule="evenodd" d="M11.6512 17.1093C11.4892 17.1973 11.2912 17.1893 11.1359 17.0859L9.41322 15.9373L7.69056 17.0859C7.49189 17.2179 7.22789 17.1919 7.05922 17.0233L5.98122 15.9446L3.63656 17.1166C3.45456 17.2079 3.23522 17.1793 3.08256 17.0446C2.92989 16.9099 2.87389 16.6966 2.94122 16.5039L5.60789 8.90392C5.61189 8.89259 5.61656 8.88059 5.62189 8.86926C6.31656 7.28059 7.90256 6.16992 9.74656 6.16992C12.2299 6.16992 14.2466 8.18592 14.2466 10.6699C14.2466 10.7026 14.2432 10.7353 14.2366 10.7679L14.1679 11.1133C13.9592 10.9366 13.6932 10.8366 13.4132 10.8366C13.0232 10.8366 12.6586 11.0313 12.4426 11.3559C12.4412 11.3573 12.4399 11.3593 12.4392 11.3613C12.4392 11.3613 10.9132 13.7553 10.9132 15.3366C10.9132 16.0293 11.1952 16.6566 11.6512 17.1093ZM11.2466 9.00326C10.9706 9.00326 10.7466 9.22726 10.7466 9.50326C10.7466 9.77926 10.9706 10.0033 11.2466 10.0033C11.5226 10.0033 11.7466 9.77926 11.7466 9.50326C11.7466 9.22726 11.5226 9.00326 11.2466 9.00326Z" fill="#A6A6A6"/>
</g>
<defs>
<clipPath id="clip0_3154_4647">
<rect width="16" height="16" fill="white" transform="translate(2 2)"/>
</clipPath>
</defs>
</svg>
