<svg width="20" height="20" viewBox="0 0 20 20" fill="none" xmlns="http://www.w3.org/2000/svg">
<g clip-path="url(#clip0_3154_4633)">
<path d="M6.06994 6.3208L4.68377 6.42789C4.29805 6.45771 3.95452 6.65986 3.74121 6.98251L2.14257 9.40037C1.98079 9.64506 1.95507 9.95127 2.07373 10.2195C2.19241 10.4878 2.43632 10.6747 2.72616 10.7196L3.99537 10.9162C4.29227 9.34056 5.00302 7.76882 6.06994 6.3208Z" fill="#A6A6A6"/>
<path d="M9.08398 16.0045L9.28058 17.2737C9.32548 17.5636 9.51242 17.8075 9.78064 17.9261C9.89223 17.9755 10.0104 17.9999 10.1279 17.9999C10.293 17.9999 10.4569 17.9518 10.5998 17.8573L13.0177 16.2587C13.3404 16.0453 13.5425 15.7018 13.5723 15.3161L13.6794 13.9299C12.2313 14.9969 10.6596 15.7076 9.08398 16.0045Z" fill="#A6A6A6"/>
<path d="M8.60632 15.1249C8.65038 15.1249 8.69469 15.1212 8.73891 15.1139C9.39903 15.0035 10.0353 14.8176 10.6422 14.5742L5.42568 9.35767C5.18231 9.96457 4.99638 10.6008 4.886 11.261C4.8425 11.5212 4.92978 11.7863 5.11631 11.9728L8.02704 14.8836C8.18191 15.0384 8.39094 15.1249 8.60632 15.1249Z" fill="#A6A6A6"/>
<path d="M16.724 9.09379C18.0005 6.62587 18.0478 4.01789 17.9811 2.79478C17.9583 2.37568 17.6241 2.04156 17.205 2.01872C17.0059 2.00784 16.7698 2 16.5038 2C15.1361 2 12.972 2.20715 10.906 3.2758C9.26407 4.12508 7.11106 5.99509 5.84082 8.45264C5.85582 8.46436 5.87048 8.47679 5.88429 8.49061L11.5092 14.1156C11.5231 14.1294 11.5355 14.144 11.5472 14.159C14.0047 12.8887 15.8747 10.7357 16.724 9.09379ZM11.3028 5.38247C12.2166 4.4687 13.7035 4.46861 14.6173 5.38247C15.06 5.82513 15.3038 6.41372 15.3038 7.03974C15.3038 7.66577 15.06 8.25436 14.6173 8.69701C14.1605 9.15385 13.5602 9.38232 12.9601 9.38238C12.3598 9.38241 11.7598 9.15397 11.3028 8.69701C10.8601 8.25436 10.6163 7.66577 10.6163 7.03974C10.6163 6.41372 10.8601 5.82513 11.3028 5.38247Z" fill="#A6A6A6"/>
<path d="M11.9656 8.03421C12.5139 8.5825 13.4061 8.58253 13.9543 8.03421C14.2199 7.76859 14.3662 7.41546 14.3662 7.03984C14.3662 6.66421 14.2199 6.31109 13.9543 6.0455C13.6802 5.77134 13.3201 5.63428 12.96 5.63428C12.5999 5.63428 12.2397 5.77134 11.9656 6.0455C11.7 6.31109 11.5537 6.66421 11.5537 7.03984C11.5537 7.41546 11.7 7.76862 11.9656 8.03421Z" fill="#A6A6A6"/>
<path d="M2.47853 15.1855C2.5985 15.1855 2.71847 15.1397 2.80997 15.0481L4.34038 13.5177C4.52344 13.3347 4.52344 13.0379 4.34038 12.8548C4.15734 12.6718 3.86053 12.6718 3.67747 12.8548L2.14706 14.3852C1.964 14.5683 1.964 14.8651 2.14706 15.0481C2.23859 15.1397 2.35856 15.1855 2.47853 15.1855Z" fill="#A6A6A6"/>
<path d="M5.74255 14.2574C5.55952 14.0744 5.2627 14.0744 5.07964 14.2574L2.1373 17.1998C1.95423 17.3828 1.95423 17.6796 2.1373 17.8627C2.22883 17.9542 2.3488 17.9999 2.46877 17.9999C2.58873 17.9999 2.7087 17.9542 2.8002 17.8626L5.74252 14.9203C5.92561 14.7373 5.92561 14.4405 5.74255 14.2574Z" fill="#A6A6A6"/>
<path d="M6.48213 15.66L4.95175 17.1904C4.76869 17.3735 4.76869 17.6703 4.95175 17.8533C5.04328 17.9448 5.16325 17.9906 5.28319 17.9906C5.40313 17.9906 5.52312 17.9449 5.61462 17.8533L7.14503 16.3229C7.32809 16.1398 7.32809 15.8431 7.14503 15.66C6.962 15.4769 6.66519 15.4769 6.48213 15.66Z" fill="#A6A6A6"/>
</g>
<defs>
<clipPath id="clip0_3154_4633">
<rect width="16" height="16" fill="white" transform="translate(2 2)"/>
</clipPath>
</defs>
</svg>
