<svg width="20" height="20" viewBox="0 0 20 20" fill="none" xmlns="http://www.w3.org/2000/svg">
<g clip-path="url(#clip0_3154_4601)">
<path d="M17.553 9.59149C17.9585 9.19645 18.1016 8.61667 17.9266 8.07867C17.7519 7.54046 17.2954 7.15555 16.7352 7.07414L13.2762 6.57155C13.1006 6.54592 12.9489 6.4357 12.8704 6.2767L11.3235 3.14208C11.073 2.63474 10.5658 2.31958 9.99997 2.31958C9.4341 2.31958 8.92694 2.63474 8.67647 3.14208L7.12957 6.27667C7.05107 6.43574 6.89935 6.54595 6.72404 6.57152L3.26485 7.07411C2.7046 7.15555 2.24807 7.54045 2.07347 8.07839C1.89838 8.61667 2.04147 9.19649 2.44682 9.59139L4.94988 12.0315C5.07685 12.1552 5.13479 12.3335 5.10488 12.508L4.51388 15.9535C4.41838 16.5113 4.64335 17.0644 5.101 17.3968C5.55875 17.7294 6.15438 17.7725 6.6555 17.5093L9.74932 15.8826C9.90625 15.8002 10.0937 15.8002 10.2504 15.8825L13.3445 17.5093C13.8456 17.7725 14.4413 17.7294 14.899 17.3968C15.3566 17.0643 15.5816 16.5113 15.4861 15.9535L14.8951 12.5082C14.8652 12.3335 14.9231 12.1552 15.0502 12.0314L17.553 9.59149Z" fill="#A6A6A6"/>
</g>
<defs>
<clipPath id="clip0_3154_4601">
<rect width="16" height="16" fill="white" transform="translate(2 2)"/>
</clipPath>
</defs>
</svg>
