<svg width="20" height="20" viewBox="0 0 20 20" fill="none" xmlns="http://www.w3.org/2000/svg">
<path d="M4.90897 8.54539H15.0906C15.2876 8.54539 15.4581 8.47347 15.602 8.3295C15.7458 8.18558 15.818 8.01515 15.818 7.81818C15.818 7.6212 15.7458 7.45085 15.602 7.30673L10.5111 2.21588C10.3673 2.07212 10.1969 2 9.99982 2C9.80272 2 9.63233 2.07212 9.48837 2.21588L4.39752 7.30673C4.25356 7.45069 4.18164 7.6212 4.18164 7.81818C4.18164 8.01511 4.25356 8.18558 4.39752 8.3295C4.54164 8.47347 4.71203 8.54539 4.90897 8.54539Z" fill="#A6A6A6"/>
<path d="M15.0906 11.4548H4.90897C4.71187 11.4548 4.54148 11.5268 4.39752 11.6706C4.25356 11.8146 4.18164 11.9849 4.18164 12.1819C4.18164 12.3789 4.25356 12.5494 4.39752 12.6933L9.48837 17.7841C9.63249 17.928 9.80288 18.0001 9.99982 18.0001C10.1968 18.0001 10.3673 17.928 10.5111 17.7841L15.602 12.6932C15.7458 12.5494 15.818 12.3789 15.818 12.1819C15.818 11.9849 15.7458 11.8146 15.602 11.6706C15.4582 11.5266 15.2876 11.4548 15.0906 11.4548Z" fill="#A6A6A6"/>
</svg>
