<svg width="20" height="20" viewBox="0 0 20 20" fill="none" xmlns="http://www.w3.org/2000/svg">
<path d="M17.9826 8.67538L16.4717 15.3514C16.4418 15.4911 16.364 15.616 16.2519 15.7045C16.1398 15.7931 16.0004 15.8398 15.8575 15.8366H4.09001C3.94718 15.8398 3.80772 15.7931 3.69562 15.7045C3.58352 15.616 3.5058 15.4911 3.47583 15.3514L2.0141 8.67538C1.9895 8.56257 1.9972 8.44512 2.03631 8.33649C2.07541 8.22785 2.14435 8.13245 2.2352 8.06121C2.32631 7.98971 2.43578 7.94543 2.55097 7.93348C2.66616 7.92152 2.78238 7.94238 2.88623 7.99365L6.47299 9.73175L9.44559 4.47444C9.49915 4.37992 9.57683 4.3013 9.6707 4.2466C9.76457 4.19191 9.87127 4.16309 9.97992 4.16309C10.0886 4.16309 10.1953 4.19191 10.2891 4.2466C10.383 4.3013 10.4607 4.37992 10.5142 4.47444L13.4868 9.7379L17.0982 7.98751C17.2028 7.93206 17.3211 7.90803 17.4391 7.91829C17.557 7.92855 17.6695 7.97268 17.7629 8.04535C17.8563 8.11803 17.9268 8.21616 17.9658 8.32793C18.0047 8.4397 18.0106 8.56036 17.9826 8.67538Z" fill="#A6A6A6"/>
</svg>
