<svg width="20" height="20" viewBox="0 0 20 20" fill="none" xmlns="http://www.w3.org/2000/svg">
<g clip-path="url(#clip0_3154_4831)">
<path fill-rule="evenodd" clip-rule="evenodd" d="M11.6144 16.5386C11.6144 15.9856 11.1661 15.5373 10.6131 15.5373H9.38694C9.12138 15.5373 8.86669 15.6428 8.67891 15.8305C8.49113 16.0183 8.38562 16.273 8.38562 16.5386C8.38562 17.0916 8.83394 17.5399 9.38694 17.5399H10.6131C11.1661 17.5399 11.6144 17.0916 11.6144 16.5386ZM4.10503 13.9566C4.27228 13.9694 4.47463 13.9767 4.67788 13.9648C4.78616 14.5139 5.05516 15.0233 5.45669 15.4248C5.98975 15.9579 6.71272 16.2573 7.46656 16.2573H7.84863C7.83178 16.3495 7.82312 16.4436 7.82312 16.5386C7.82312 16.6346 7.83178 16.7286 7.84837 16.8198H7.46656C6.56353 16.8198 5.69747 16.4611 5.05894 15.8226C4.54953 15.3131 4.21819 14.6589 4.10503 13.9566ZM3.81891 13.3581C3.37481 13.2832 2.96156 13.0721 2.63897 12.7494C2.22984 12.3403 2 11.7854 2 11.2068V9.87736C2 9.29876 2.22984 8.74386 2.63897 8.33473C3.04809 7.92561 3.603 7.69573 4.18159 7.69573H4.32681C4.55894 4.76586 7.01025 2.46045 10 2.46045C12.9897 2.46045 15.4411 4.76586 15.6732 7.69573H15.8184C16.397 7.69573 16.9519 7.92561 17.361 8.33473C17.7702 8.74386 18 9.29876 18 9.87736V11.2068C18 11.7854 17.7702 12.3403 17.361 12.7494C16.9519 13.1586 16.397 13.3884 15.8184 13.3884H15.1746C14.9076 13.3884 14.6912 13.172 14.6912 12.905V8.15164C14.6912 5.56076 12.5909 3.46045 10 3.46045C7.40913 3.46045 5.30881 5.56076 5.30881 8.15164V12.905C5.30881 13.0935 5.20091 13.2569 5.04347 13.3366C4.61009 13.4869 3.938 13.3782 3.81891 13.3581Z" fill="#A6A6A6"/>
</g>
<defs>
<clipPath id="clip0_3154_4831">
<rect width="16" height="16" fill="white" transform="translate(2 2)"/>
</clipPath>
</defs>
</svg>
