<svg width="16" height="16" viewBox="0 0 16 16" fill="none" xmlns="http://www.w3.org/2000/svg">
<path d="M12.8776 10.4075C12.4798 13.3556 9.76729 15.4235 6.81917 15.0256C3.87104 14.6278 1.80354 11.9156 2.20135 8.9672C2.5026 6.73376 4.13229 5.00595 6.18635 4.4722C6.84385 4.30126 7.54479 4.25282 8.25948 4.34939C8.97417 4.44595 9.63729 4.67845 10.2261 5.01751C12.0654 6.07626 13.1789 8.17407 12.8776 10.4075Z" fill="#A6A6A6"/>
<path d="M10.5093 2.91406L10.2975 4.48406C9.69125 4.16281 9.02622 3.94812 8.32594 3.85374C8.06278 3.81843 7.79594 3.80031 7.53219 3.80031C7.10094 3.80031 6.67375 3.84812 6.25781 3.94093L6.46969 2.36937C6.48094 2.28406 6.56031 2.22374 6.64531 2.23531L8.26281 2.45343L8.76625 2.52124L10.3753 2.73843C10.4606 2.74999 10.5206 2.82906 10.5093 2.91406Z" fill="#A6A6A6"/>
<path d="M12.4346 1.34317C12.3865 1.47254 12.2424 1.53817 12.113 1.49004C11.3684 1.21192 10.5927 1.20692 9.92961 1.47567C9.58898 1.61379 9.29305 1.81754 9.07305 2.05817L8.49805 1.98067C8.77898 1.57098 9.2193 1.22379 9.74183 1.01223C10.5215 0.696605 11.4259 0.69973 12.288 1.0216C12.4171 1.06973 12.483 1.21379 12.4346 1.34317Z" fill="#A6A6A6"/>
<path d="M13.2034 1.54161C13.1227 1.54161 13.0434 1.50258 12.9953 1.43046C12.9186 1.31564 12.9495 1.16039 13.0643 1.08371L13.6126 0.717457C13.7275 0.640707 13.8827 0.671676 13.9594 0.786457C14.036 0.90127 14.0051 1.05652 13.8903 1.13321L13.342 1.49946C13.2993 1.52796 13.2511 1.54161 13.2034 1.54161Z" fill="#A6A6A6"/>
<path d="M12.2511 3.09622C12.2273 3.09622 12.2031 3.09279 12.1791 3.0856C12.0468 3.04585 11.9719 2.90644 12.0116 2.77422L12.2015 2.14269C12.2412 2.01047 12.3806 1.93554 12.5128 1.97522C12.645 2.01497 12.72 2.15438 12.6803 2.2866L12.4905 2.91813C12.4579 3.02635 12.3586 3.09622 12.2511 3.09622Z" fill="#A6A6A6"/>
<path d="M13.8475 2.82706C13.7923 2.82706 13.7367 2.80884 13.6904 2.77143L13.1777 2.35675C13.0704 2.2699 13.0537 2.1125 13.1406 2.00515C13.2274 1.89781 13.3848 1.88115 13.4922 1.96796L14.0049 2.38265C14.1122 2.4695 14.1289 2.6269 14.0421 2.73425C13.9926 2.79534 13.9204 2.82706 13.8475 2.82706Z" fill="#A6A6A6"/>
</svg>
