<svg width="20" height="20" viewBox="0 0 20 20" fill="none" xmlns="http://www.w3.org/2000/svg">
<path d="M13.301 3.79596L12.7637 4.72582L14.6257 5.80056L15.163 4.87068C15.311 4.61256 15.2229 4.28506 14.9658 4.13593L14.0359 3.59855C13.7787 3.44958 13.4502 3.53771 13.301 3.79596Z" fill="#A6A6A6"/>
<path d="M9.99963 4.41987C10.3395 4.41987 10.6715 4.45312 10.9996 4.5V3.63025L11.6871 3.62499V2.5C11.6871 2.22363 11.4635 2 11.1871 2H8.81738C8.54102 2 8.31738 2.22363 8.31738 2.5V3.62499L8.99963 3.63025V4.5C9.32776 4.45312 9.65976 4.41987 9.99963 4.41987Z" fill="#A6A6A6"/>
<path d="M10 5C6.41014 5 3.5 7.91012 3.5 11.5C3.5 15.0899 6.41014 18 10 18C13.5899 18 16.5 15.0899 16.5 11.5C16.5 7.91012 13.5899 5 10 5ZM13.0375 14.555L9.24999 11.9329V8.23111H10.343V11.3602L13.6596 13.6564L13.0375 14.555Z" fill="#A6A6A6"/>
</svg>
