<svg width="20" height="20" viewBox="0 0 20 20" fill="none" xmlns="http://www.w3.org/2000/svg">
<path d="M18 10C18 12.1217 17.1571 14.1566 15.6568 15.6569C14.1566 17.1571 12.1217 18 9.99999 18C7.87826 18 5.84343 17.1571 4.34314 15.6569C2.84285 14.1566 2 12.1217 2 10C2 9.84845 2.0602 9.70311 2.16737 9.59594C2.27453 9.48878 2.41988 9.42857 2.57143 9.42857C2.72298 9.42857 2.86833 9.48878 2.97549 9.59594C3.08265 9.70311 3.14286 9.84845 3.14286 10C3.14057 11.5303 3.64949 13.0176 4.58883 14.2257C5.52818 15.4338 6.84413 16.2935 8.32781 16.6684C9.81149 17.0433 11.3779 16.9119 12.7784 16.2951C14.1789 15.6783 15.3332 14.6113 16.0582 13.2636C16.7832 11.9159 17.0372 10.3647 16.78 8.85612C16.5228 7.34757 15.7691 5.96813 14.6386 4.93678C13.508 3.90542 12.0654 3.28122 10.5396 3.16327C9.01382 3.04532 7.49237 3.44037 6.21672 4.28572H6.57143C6.72298 4.28572 6.86832 4.34592 6.97549 4.45309C7.08265 4.56025 7.14285 4.70559 7.14285 4.85715C7.14285 5.0087 7.08265 5.15404 6.97549 5.26121C6.86832 5.36837 6.72298 5.42857 6.57143 5.42857H4.85714C4.78209 5.42862 4.70776 5.41387 4.63841 5.38516C4.56907 5.35646 4.50606 5.31437 4.45298 5.2613C4.39991 5.20823 4.35782 5.14522 4.32912 5.07587C4.30042 5.00653 4.28567 4.9322 4.28571 4.85715V3.14286C4.28571 2.99131 4.34592 2.84596 4.45308 2.7388C4.56024 2.63164 4.70559 2.57143 4.85714 2.57143C5.00869 2.57143 5.15404 2.63164 5.2612 2.7388C5.36837 2.84596 5.42857 2.99131 5.42857 3.14286V3.43653C6.62787 2.60063 8.03333 2.10941 9.49223 2.01626C10.9511 1.9231 12.4076 2.23157 13.7035 2.90814C14.9994 3.58471 16.0851 4.60351 16.8425 5.85382C17.6 7.10413 18.0003 8.53814 18 10ZM15.1428 10C15.1428 11.0172 14.8412 12.0115 14.2761 12.8572C13.711 13.703 12.9078 14.3621 11.9681 14.7514C11.0283 15.1406 9.99429 15.2425 8.99667 15.044C7.99906 14.8456 7.08269 14.3558 6.36345 13.6365C5.64421 12.9173 5.1544 12.0009 4.95596 11.0033C4.75752 10.0057 4.85937 8.97165 5.24862 8.03192C5.63787 7.09218 6.29704 6.28898 7.14278 5.72387C7.98852 5.15877 8.98283 4.85715 9.99999 4.85715C11.3635 4.85863 12.6707 5.40095 13.6349 6.3651C14.599 7.32925 15.1414 8.63649 15.1428 10ZM12.0312 10.6674L10.5714 9.6942V7.14286C10.5714 6.99131 10.5112 6.84596 10.4041 6.7388C10.2969 6.63164 10.1515 6.57143 9.99999 6.57143C9.84844 6.57143 9.7031 6.63164 9.59593 6.7388C9.48877 6.84596 9.42857 6.99131 9.42857 7.14286V10C9.42859 10.0941 9.45182 10.1867 9.49621 10.2696C9.5406 10.3525 9.60477 10.4232 9.68303 10.4754L11.3973 11.6183C11.5234 11.7006 11.6769 11.7298 11.8244 11.6996C11.9719 11.6693 12.1016 11.582 12.1851 11.4567C12.2686 11.3315 12.2993 11.1783 12.2705 11.0304C12.2417 10.8826 12.1557 10.7522 12.0312 10.6674Z" fill="#A6A6A6"/>
</svg>
