<svg width="20" height="20" viewBox="0 0 20 20" fill="none" xmlns="http://www.w3.org/2000/svg">
<g clip-path="url(#clip0_3154_4813)">
<path d="M4.18086 8.39111L1.72266 10.5679C1.81485 11.9523 2.25091 13.2918 2.99136 14.4652L6.25746 14.782L7.59576 12.94L6.57156 9.16691L4.18086 8.39111Z" fill="#A6A6A6"/>
<path d="M16.7619 15.1118L14.0091 15.3788L12.9033 17.9183C14.4328 17.3737 15.7727 16.3992 16.7619 15.1118Z" fill="#A6A6A6"/>
<path d="M12.0514 12.6992L13.039 9.0614L10.102 7.0625L7.16504 9.0614L8.15234 12.6992H12.0514Z" fill="#A6A6A6"/>
<path d="M13.4613 15.1343L12.126 13.2998H8.07599L6.74219 15.1352L8.05409 18.1475C9.3974 18.4851 10.8034 18.4851 12.1467 18.1475L13.4613 15.1343Z" fill="#A6A6A6"/>
<path d="M7.30091 17.9183L6.19481 15.3788L3.44141 15.1118C4.4309 16.3994 5.77105 17.3739 7.30091 17.9183Z" fill="#A6A6A6"/>
<path d="M3.18273 5.24365C2.25998 6.58009 1.74713 8.15669 1.70703 9.78025L3.77913 7.94515L3.18273 5.24365Z" fill="#A6A6A6"/>
<path d="M6.77378 8.60183L9.80168 6.54113V3.87113L6.97238 2.20703C5.68675 2.72605 4.54881 3.55385 3.65918 4.61723L4.36658 7.82063L6.77378 8.60183Z" fill="#A6A6A6"/>
<path d="M18.4962 9.78055C18.4561 8.15691 17.9432 6.58023 17.0205 5.24365L16.4238 7.94545L18.4962 9.78055Z" fill="#A6A6A6"/>
<path d="M12.4884 1.94749C10.931 1.4843 9.27234 1.4843 7.71484 1.94749L10.1016 3.35209L12.4884 1.94749Z" fill="#A6A6A6"/>
<path d="M10.4014 6.54113L13.4296 8.60183L15.8365 7.82183L16.5436 4.61813C15.6541 3.55436 14.5161 2.72623 13.2304 2.20703L10.4014 3.87173V6.54113Z" fill="#A6A6A6"/>
<path d="M18.4805 10.5679L16.0223 8.39111L13.6316 9.16691L12.6074 12.94L13.9454 14.7814L17.2118 14.4652C17.9522 13.2918 18.3883 11.9523 18.4805 10.5679Z" fill="#A6A6A6"/>
</g>
<defs>
<clipPath id="clip0_3154_4813">
<rect width="18" height="18" fill="white" transform="translate(1.10156 1)"/>
</clipPath>
</defs>
</svg>
