<svg width="20" height="20" viewBox="0 0 20 20" fill="none" xmlns="http://www.w3.org/2000/svg">
<path d="M14.7882 7.0684L16.3461 4.57523C16.406 4.4798 16.4342 4.36957 16.4342 4.25654V2.59301C16.4342 2.26094 16.1718 2 15.8394 2H14.2569C13.9248 2 13.6445 2.26094 13.6445 2.59301V3.48605C13.6445 3.62233 13.5455 3.73677 13.4093 3.73677H11.8133C11.6771 3.73677 11.5654 3.62233 11.5654 3.48605V2.59301C11.5654 2.26094 11.2974 2 10.965 2H9.03387C8.7018 2 8.43346 2.26094 8.43346 2.59301V3.48605C8.43346 3.62233 8.32219 3.73677 8.18591 3.73677H6.58999C6.45371 3.73677 6.35441 3.62233 6.35441 3.48605V2.59301C6.35476 2.26094 6.07481 2 5.74238 2H4.15985C3.82778 2 3.56543 2.26094 3.56543 2.59301V4.25654C3.56543 4.36922 3.5936 4.4798 3.65347 4.57523L5.211 7.0684C5.27086 7.16383 5.3022 7.27406 5.3022 7.38674V14.1856C5.3022 14.3969 5.18987 14.5923 5.00887 14.7011L3.85454 15.3952C3.67354 15.504 3.56543 15.6994 3.56543 15.9111V17.4063C3.56543 17.7387 3.82742 18 4.15985 18H15.8394C16.1711 18 16.4338 17.7391 16.4338 17.4063V15.9111C16.4338 15.6994 16.3264 15.504 16.1458 15.3952L14.9883 14.7015C14.8073 14.5923 14.6967 14.3972 14.6967 14.1859V7.38674C14.697 7.27441 14.7284 7.16383 14.7882 7.0684ZM11.5651 10.6015C11.5651 10.8462 11.3679 11.0526 11.1231 11.0526H8.87611C8.63137 11.0526 8.43382 10.8462 8.43382 10.6015V8.67066C8.43382 7.81953 9.12296 7.13214 9.97409 7.13214H10.0252C10.8766 7.13214 11.5651 7.81953 11.5651 8.67066V10.6015Z" fill="#A6A6A6"/>
</svg>
