<svg width="20" height="20" viewBox="0 0 20 20" fill="none" xmlns="http://www.w3.org/2000/svg">
<path d="M18.2471 11.2034C18.2471 13.4891 16.3923 15.3439 14.1065 15.3439C13.2447 15.3439 12.4391 15.0816 11.7646 14.6132L12.7014 17.8545C12.7763 18.1355 12.5702 18.4353 12.2705 18.4353L9.94726 17.3112L7.64279 18.454C7.34302 18.454 7.1182 18.173 7.21187 17.8732L8.14865 14.632C7.47417 15.0816 6.66854 15.3627 5.80671 15.3627C3.52097 15.3627 1.66615 13.5078 1.66615 11.2221C1.64742 8.91764 3.52097 7.06283 5.80671 7.06283C5.88165 7.06283 5.93786 7.06283 5.99406 7.06283C5.86291 6.66938 5.80671 6.2572 5.80671 5.80754C5.80671 3.52181 7.66153 1.66699 9.94726 1.66699C12.233 1.66699 14.0878 3.52181 14.0878 5.80754C14.0878 6.23846 14.0129 6.66938 13.9005 7.06283C13.9567 7.06283 14.0316 7.06283 14.0878 7.06283C16.3735 7.06283 18.2471 8.91764 18.2471 11.2034Z" fill="#DB3E3E"/>
</svg>
