<svg width="13" height="13" viewBox="0 0 13 13" fill="none" xmlns="http://www.w3.org/2000/svg">
<g clip-path="url(#clip0_3375_485)">
<path d="M6.47535 10.3473L11.5862 5.74753C11.6945 5.64941 11.7559 5.51243 11.7559 5.36729L11.7559 2.30079C11.7559 2.09942 11.6373 1.91645 11.4533 1.83366C11.2683 1.75188 11.0526 1.78561 10.9034 1.92054L6.13394 6.21262L1.36554 1.92054C1.21528 1.78561 0.999604 1.75086 0.815614 1.83366C0.630602 1.91645 0.512031 2.09942 0.512031 2.30079L0.51203 5.36729C0.51203 5.51243 0.574383 5.6494 0.680688 5.74753L5.79152 10.3473C5.98573 10.5221 6.28216 10.5221 6.47535 10.3473Z" fill="#DB3E3E"/>
</g>
<defs>
<clipPath id="clip0_3375_485">
<rect width="12.2667" height="12.2667" fill="white" transform="translate(12.2676 12.2667) rotate(-180)"/>
</clipPath>
</defs>
</svg>
