<svg width="20" height="20" viewBox="0 0 20 20" fill="none" xmlns="http://www.w3.org/2000/svg">
<path d="M2 13.4286C2 13.1255 2.12041 12.8348 2.33474 12.6205C2.54906 12.4061 2.83975 12.2857 3.14286 12.2857H5.42857C5.73168 12.2857 6.02237 12.4061 6.23669 12.6205C6.45102 12.8348 6.57143 13.1255 6.57143 13.4286V16.8571C6.57143 17.1602 6.45102 17.4509 6.23669 17.6653C6.02237 17.8796 5.73168 18 5.42857 18H3.14286C2.83975 18 2.54906 17.8796 2.33474 17.6653C2.12041 17.4509 2 17.1602 2 16.8571V13.4286ZM7.71429 8.85714C7.71429 8.55404 7.83469 8.26335 8.04902 8.04902C8.26335 7.83469 8.55404 7.71429 8.85714 7.71429H11.1429C11.446 7.71429 11.7367 7.83469 11.951 8.04902C12.1653 8.26335 12.2857 8.55404 12.2857 8.85714V16.8571C12.2857 17.1602 12.1653 17.4509 11.951 17.6653C11.7367 17.8796 11.446 18 11.1429 18H8.85714C8.55404 18 8.26335 17.8796 8.04902 17.6653C7.83469 17.4509 7.71429 17.1602 7.71429 16.8571V8.85714ZM13.4286 3.14286C13.4286 2.83975 13.549 2.54906 13.7633 2.33474C13.9776 2.12041 14.2683 2 14.5714 2H16.8571C17.1602 2 17.4509 2.12041 17.6653 2.33474C17.8796 2.54906 18 2.83975 18 3.14286V16.8571C18 17.1602 17.8796 17.4509 17.6653 17.6653C17.4509 17.8796 17.1602 18 16.8571 18H14.5714C14.2683 18 13.9776 17.8796 13.7633 17.6653C13.549 17.4509 13.4286 17.1602 13.4286 16.8571V3.14286Z" fill="#A6A6A6"/>
</svg>
