<svg width="20" height="20" viewBox="0 0 20 20" fill="none" xmlns="http://www.w3.org/2000/svg">
<path d="M18.4531 7.89009C18.4531 8.86434 18.172 9.78238 17.6662 10.5505C17.3664 11.1313 16.9917 11.7121 15.7926 13.0424C13.8066 15.2157 11.1462 16.8831 10.0408 17.2579C8.95414 16.8831 6.87449 15.2344 4.79485 13.3983C3.46463 12.218 2.60279 11.0564 2.17188 10.0634C1.85337 9.40767 1.66602 8.67698 1.66602 7.90883C1.66602 5.19218 3.85807 3.00012 6.57472 3.00012C7.94242 3.00012 9.17896 3.56218 10.0595 4.46149C10.9588 3.56218 12.1766 3.00012 13.5443 3.00012C16.261 2.98138 18.4531 5.19218 18.4531 7.89009Z" fill="#DB3E3E"/>
</svg>
