<svg width="21" height="21" viewBox="0 0 21 21" fill="none" xmlns="http://www.w3.org/2000/svg">
<path fill-rule="evenodd" clip-rule="evenodd" d="M21 10.5C21 16.299 16.299 21 10.5 21C4.70101 21 0 16.299 0 10.5C0 4.70101 4.70101 0 10.5 0C16.299 0 21 4.70101 21 10.5ZM10.5 17.5517C14.3946 17.5517 17.5517 14.3946 17.5517 10.5C17.5517 6.60544 14.3946 3.44828 10.5 3.44828C6.60544 3.44828 3.44828 6.60544 3.44828 10.5C3.44828 14.3946 6.60544 17.5517 10.5 17.5517ZM10.5 19.5517C15.4991 19.5517 19.5517 15.4991 19.5517 10.5C19.5517 5.50087 15.4991 1.44828 10.5 1.44828C5.50087 1.44828 1.44828 5.50087 1.44828 10.5C1.44828 15.4991 5.50087 19.5517 10.5 19.5517ZM14.0561 7.78187H7.30386V7.78201C7.32615 7.82481 7.34563 7.86259 7.36337 7.89699L7.36361 7.89745L7.36369 7.89762L7.36374 7.89771L7.36375 7.89773C7.39814 7.96442 7.42597 8.01838 7.45494 8.0715C7.54247 8.23174 7.6306 8.39156 7.71874 8.55138L7.71887 8.55163L7.71888 8.55164L7.71889 8.55165L7.71889 8.55166L7.7189 8.55167C7.92965 8.93383 8.1404 9.31598 8.34277 9.70379C8.43459 9.87997 8.53902 9.94328 8.71752 9.94164C9.21134 9.93709 9.70522 9.93741 10.1991 9.93774C10.6813 9.93805 11.1636 9.93837 11.6458 9.93415C11.837 9.9325 11.9038 9.99537 11.8999 10.2203C11.8937 10.5948 11.8943 10.9694 11.895 11.344C11.8956 11.6811 11.8962 12.0183 11.8917 12.3553C11.8818 13.1068 11.4524 13.6153 10.7945 13.6391C10.2408 13.659 9.68558 13.659 9.13174 13.6419C8.44485 13.6208 8.04575 13.1917 7.9815 12.4142C7.96508 12.2143 7.89673 12.1569 7.73465 12.1586C7.38748 12.162 7.04025 12.1618 6.69303 12.1615C6.4702 12.1614 6.24737 12.1612 6.02456 12.162C5.97797 12.1622 5.93138 12.17 5.88387 12.1779L5.88385 12.1779L5.88382 12.1779L5.8838 12.1779C5.86148 12.1816 5.83895 12.1854 5.81613 12.1884C5.81284 12.208 5.80913 12.2259 5.80567 12.2427C5.79881 12.2758 5.79291 12.3043 5.7931 12.3327C5.80733 14.1375 6.56374 15.5661 8.37137 15.8405C9.10846 15.9524 9.86321 15.9357 10.6132 15.9191H10.6132H10.6133H10.6133H10.6134H10.6134C10.7388 15.9164 10.8641 15.9136 10.9891 15.9114C11.7546 15.8983 12.4686 15.6465 13.0673 15.0728C13.8193 14.352 14.0672 13.3807 14.0749 12.3101C14.0822 11.27 14.0792 10.2298 14.0762 9.18965V9.18963V9.18962V9.18961V9.1896C14.0751 8.80642 14.074 8.42324 14.0734 8.04007C14.0733 7.98246 14.0682 7.92485 14.063 7.86568L14.063 7.8656C14.0605 7.83808 14.0581 7.81022 14.0561 7.78187ZM9.75301 7.30985H9.75299C8.92547 7.30907 8.0979 7.30829 7.27042 7.31471C7.10028 7.31605 6.99907 7.25543 6.91517 7.08824C6.82493 6.90849 6.72781 6.7332 6.63066 6.55788L6.63065 6.55787L6.63065 6.55787L6.63065 6.55786L6.63062 6.55781L6.63059 6.55776L6.63057 6.55771C6.60653 6.51433 6.58249 6.47094 6.55855 6.42749C6.5002 6.45146 6.43645 6.46466 6.36969 6.46466C6.09021 6.46466 5.86365 6.23346 5.86365 5.94825C5.86365 5.66305 6.09021 5.43185 6.36969 5.43185C6.64916 5.43185 6.87572 5.66305 6.87572 5.94825C6.87572 5.95476 6.8756 5.96125 6.87536 5.9677C7.11744 6.02947 7.35911 6.09335 7.60078 6.15724L7.60083 6.15725L7.60102 6.1573C7.76731 6.20126 7.9336 6.24522 8.10002 6.28848C8.77385 6.46361 9.34251 6.20855 9.71859 5.5507C9.86514 5.29432 10.0053 5.03314 10.1454 4.77196L10.1454 4.7719L10.1454 4.77188L10.1463 4.77029C10.1853 4.69754 10.2243 4.6248 10.2635 4.55217C10.1392 4.45808 10.0586 4.30719 10.0586 4.13709C10.0586 3.85189 10.2851 3.62069 10.5646 3.62069C10.8441 3.62069 11.0706 3.85189 11.0706 4.13709C11.0706 4.30597 10.9912 4.45592 10.8684 4.55014C10.9212 4.64746 10.9736 4.74507 11.026 4.84267L11.026 4.84272L11.026 4.84273L11.0261 4.84274L11.0261 4.84276C11.1515 5.07636 11.2769 5.30994 11.4078 5.53947C11.7904 6.2096 12.3538 6.46346 13.0449 6.28534C13.2477 6.2331 13.4501 6.17913 13.6526 6.12517L13.6527 6.12515L13.6529 6.1251C13.8338 6.07688 14.0147 6.02866 14.1959 5.98166C14.1952 5.97062 14.1948 5.95948 14.1948 5.94825C14.1948 5.66305 14.4214 5.43185 14.7009 5.43185C14.9803 5.43185 15.2069 5.66305 15.2069 5.94825C15.2069 6.23346 14.9803 6.46466 14.7009 6.46466C14.6544 6.46466 14.6095 6.45828 14.5668 6.44633C14.5264 6.521 14.4855 6.59539 14.4447 6.66977L14.4447 6.66982C14.3613 6.82162 14.278 6.97342 14.1985 7.12775C14.1263 7.26786 14.0358 7.31441 13.8947 7.31366C13.0448 7.30918 12.1949 7.30964 11.345 7.31009H11.345H11.345H11.345L10.5709 7.31037H10.5708C10.2982 7.31037 10.0256 7.31011 9.75303 7.30985H9.75302H9.75301Z" fill="url(#paint0_linear_7356_49073)"/>
<defs>
<linearGradient id="paint0_linear_7356_49073" x1="20.3824" y1="3.1875" x2="-1.00062" y2="4.80615" gradientUnits="userSpaceOnUse">
<stop stop-color="#D6BC9E"/>
<stop offset="0.494792" stop-color="#FFEEC0"/>
<stop offset="0.994792" stop-color="#D6BC9E"/>
</linearGradient>
</defs>
</svg>
