<svg width="138" height="35" viewBox="0 0 138 35" fill="none" xmlns="http://www.w3.org/2000/svg">
<path d="M15.8257 27.1298H0V32.1386H21.1772V14.5869H15.7419L15.8257 27.1298Z" fill="#5F5F5F"/>
<path d="M34.8934 19.6027H39.1852V27.1298H28.1621V19.6027H33.0485V14.5869H22.7344V32.1386H44.6968V14.5869H34.8934V19.6027Z" fill="#5F5F5F"/>
<path d="M47.334 14.5869V32.0693H52.7617V23.6611V14.5869H47.334Z" fill="#5F5F5F"/>
<path d="M69.8492 14.5869H64.1775L52.7656 23.6611L64.8331 34.643H71.633L59.7256 23.7998L69.8492 14.5869Z" fill="#5F5F5F"/>
<path d="M93.433 27.0557H71.5469V32.0714H93.433V27.0557Z" fill="#5F5F5F"/>
<path d="M71.5469 25.8394H93.433V20.8237H77.3939V19.6027H93.433V14.5869H71.5469V25.8394Z" fill="#5F5F5F"/>
<path d="M113.652 28.3508H117.593V14.5869H95.6914V19.6027H112.081V23.2518H101.226L113.682 34.5945H120.512L113.652 28.3508Z" fill="#5F5F5F"/>
<path d="M82.2727 3.80957V10.5736H74.2074V12.3704H71.5621V8.0414H79.5436V6.25848H71.5469V3.80957H82.2651H82.2727Z" fill="#5F5F5F"/>
<path d="M94.027 9.92839V12.3357H83.5527V3.80957H86.2818V9.92145H94.027V9.92839Z" fill="#5F5F5F"/>
<path d="M105.474 9.92838V12.3704H94.7637V3.80957H97.4928V9.92145H105.474V9.92838ZM105.474 3.8165V9.26933L102.745 9.24852V3.8165H105.474Z" fill="#5F5F5F"/>
<path d="M117.593 3.80957V6.25848H109.566V9.3179H106.875V3.8165H117.586L117.593 3.80957ZM110.206 6.90366H117.593V12.3704H106.883V9.92838H114.91V9.3179H110.206V6.91061V6.90366Z" fill="#5F5F5F"/>
<path d="M131.979 7.62748H129.593V5.45605H127.771V7.62748H125.385V9.29247H127.771V11.4639H129.593V9.29247H131.979V7.62748Z" fill="#5F5F5F"/>
<path d="M136.079 8.81748L128.967 15.2901C128.784 15.4566 128.486 15.4566 128.311 15.2901L121.199 8.81748C121.016 8.65099 121.016 8.38043 121.199 8.22087L128.311 1.74824C128.494 1.58174 128.791 1.58174 128.967 1.74824L136.079 8.22087C136.262 8.38736 136.262 8.65792 136.079 8.81748ZM119.56 9.11579L127.983 16.7817C128.349 17.1147 128.936 17.1147 129.302 16.7817L137.726 9.11579C138.092 8.78279 138.092 8.24861 137.726 7.91562L129.302 0.249748C128.936 -0.0832492 128.349 -0.0832492 127.983 0.249748L119.56 7.91562C119.194 8.24861 119.194 8.78279 119.56 9.11579Z" fill="#5F5F5F"/>
</svg>
