<svg width="20" height="20" viewBox="0 0 20 20" fill="none" xmlns="http://www.w3.org/2000/svg">
<path d="M10.5085 2C11.0965 2.00694 11.6822 2.07652 12.2562 2.20762C12.5068 2.26485 12.6941 2.47878 12.7226 2.74007L12.8589 3.99287C12.9206 4.5681 13.3948 5.00377 13.9601 5.00438C14.112 5.00463 14.2624 4.97222 14.4028 4.90859L15.5249 4.40375C15.7583 4.29875 16.0309 4.35599 16.2051 4.54657C17.016 5.43356 17.6199 6.49737 17.9714 7.65793C18.0471 7.90818 17.96 8.18014 17.754 8.33561L16.7594 9.08646C16.4757 9.29996 16.3081 9.63899 16.3081 9.99961C16.3081 10.3601 16.4757 10.6992 16.7601 10.9132L17.7555 11.6643C17.9615 11.8197 18.0488 12.0917 17.973 12.342C17.6217 13.5024 17.0181 14.5661 16.2077 15.4532C16.0336 15.6438 15.7611 15.7012 15.5278 15.5964L14.4012 15.0909C14.0789 14.9464 13.7087 14.9676 13.4041 15.1479C13.0995 15.3282 12.8967 15.6461 12.858 16.0043L12.7226 17.257C12.6947 17.5153 12.5113 17.7278 12.2645 17.7879C11.1041 18.0707 9.8951 18.0707 8.73474 17.7879C8.48789 17.7278 8.30454 17.5153 8.27661 17.257L8.14136 16.0062C8.10164 15.6487 7.89861 15.3317 7.59425 15.152C7.28989 14.9723 6.92033 14.9513 6.59908 15.0949L5.4722 15.6005C5.23879 15.7053 4.96626 15.6479 4.79222 15.4572C3.98136 14.5691 3.37777 13.504 3.02688 12.3424C2.95131 12.0923 3.03863 11.8204 3.2445 11.6651L4.24056 10.9135C4.52427 10.7 4.69183 10.361 4.69183 10.0004C4.69183 9.63981 4.52427 9.30078 4.24019 9.08703L3.24476 8.33671C3.03857 8.18131 2.95117 7.90917 3.02701 7.65875C3.3785 6.49819 3.98241 5.43438 4.79329 4.54739C4.96751 4.35681 5.24017 4.29957 5.47354 4.40457L6.59541 4.90932C6.91822 5.05442 7.28932 5.0325 7.59533 4.84939C7.90001 4.66839 8.10285 4.35014 8.14201 3.99191L8.27826 2.74007C8.30672 2.47865 8.49426 2.26465 8.74497 2.20754C9.31957 2.07665 9.90591 2.0071 10.5085 2ZM10.4985 7.53844C9.1712 7.53844 8.09517 8.64051 8.09517 10C8.09517 11.3594 9.1712 12.4616 10.4985 12.4616C11.8259 12.4616 12.9019 11.3594 12.9019 10C12.9019 8.64051 11.8259 7.53844 10.4985 7.53844Z" fill="#A6A6A6"/>
</svg>
