<svg width="21" height="13" viewBox="0 0 21 13" fill="none" xmlns="http://www.w3.org/2000/svg">
<path d="M10.3472 5.79223L5.74747 0.681398C5.64934 0.573049 5.51237 0.511719 5.36722 0.511719L2.30072 0.511719C2.09935 0.511719 1.91639 0.63029 1.83359 0.81428C1.75182 0.999292 1.78555 1.21497 1.92047 1.36421L6.21255 6.13363L1.92047 10.902C1.78555 11.0523 1.75079 11.268 1.83359 11.452C1.91639 11.637 2.09935 11.7555 2.30072 11.7555L5.36722 11.7555C5.51237 11.7555 5.64934 11.6932 5.74747 11.5869L10.3472 6.47606C10.522 6.28185 10.522 5.98542 10.3472 5.79223Z" fill="white"/>
<path d="M18.6128 5.79223L14.0131 0.681398C13.915 0.573049 13.778 0.511719 13.6328 0.511719L10.5663 0.511719C10.365 0.511719 10.182 0.63029 10.0992 0.81428C10.0174 0.999292 10.0512 1.21497 10.1861 1.36421L14.4782 6.13363L10.1861 10.902C10.0512 11.0523 10.0164 11.268 10.0992 11.452C10.182 11.637 10.365 11.7555 10.5663 11.7555L13.6328 11.7555C13.778 11.7555 13.915 11.6932 14.0131 11.5869L18.6128 6.47606C18.7876 6.28185 18.7876 5.98542 18.6128 5.79223Z" fill="white"/>
</svg>
