<svg width="20" height="20" viewBox="0 0 20 20" fill="none" xmlns="http://www.w3.org/2000/svg">
<path d="M17.3877 11.2364C17.3877 13.7231 15.3684 15.7424 12.8817 15.7424C12.3769 15.7424 11.8908 15.6676 11.442 15.4993L12.246 18.2478C12.3208 18.5095 12.1151 18.79 11.8347 18.79L9.70321 17.743L7.57174 18.79C7.29128 18.79 7.10431 18.5282 7.1791 18.2478L7.98307 15.4806C7.51565 15.6489 7.01082 15.7237 6.506 15.7237C4.01929 15.7237 2 13.7044 2 11.2177C2 10.7876 2.05609 10.3763 2.16827 9.98366C2.16827 9.96497 2.18697 9.92757 2.18697 9.90888C2.20567 9.83409 2.24306 9.7593 2.26176 9.68451C2.617 8.69356 3.36489 7.34737 4.84196 5.73942C6.67428 3.73883 8.71226 2.33655 9.72191 2C10.7129 2.35524 12.6574 3.72013 14.4149 5.57115C15.7237 6.95473 16.509 8.24483 16.939 9.23578V9.25448C17.0886 9.57233 17.182 9.87148 17.2568 10.1145C17.2568 10.1145 17.2568 10.1332 17.2568 10.1519C17.3503 10.4885 17.3877 10.8624 17.3877 11.2364Z" fill="#DB3E3E"/>
<path d="M2.16713 9.92773C2.16713 9.94643 2.14844 9.98383 2.14844 10.0025C2.16713 9.96513 2.16713 9.94643 2.16713 9.92773Z" fill="#DB3E3E"/>
<path d="M17.2573 10.1149C17.1825 9.87189 17.089 9.57273 16.9395 9.25488C17.0703 9.53534 17.1638 9.8158 17.2573 10.1149Z" fill="#DB3E3E"/>
</svg>
