<svg width="20" height="20" viewBox="0 0 20 20" fill="none" xmlns="http://www.w3.org/2000/svg">
<path d="M9.62075 3.23193C9.65581 3.1623 9.70996 3.10368 9.7771 3.0627C9.84424 3.02172 9.92169 3 10.0007 3C10.0797 3 10.1572 3.02172 10.2243 3.0627C10.2915 3.10368 10.3456 3.1623 10.3807 3.23193L12.2285 6.91192C12.3502 7.15413 12.5299 7.36369 12.7522 7.52259C12.9744 7.6815 13.2325 7.78501 13.5044 7.82425L17.6368 8.41884C17.7151 8.42999 17.7887 8.46246 17.8492 8.51258C17.9097 8.56271 17.9547 8.62847 17.9792 8.70245C18.0037 8.77642 18.0066 8.85566 17.9877 8.93118C17.9687 9.00671 17.9287 9.07552 17.872 9.12982L14.8835 11.9911C14.6864 12.1799 14.5389 12.413 14.4538 12.6703C14.3686 12.9276 14.3484 13.2014 14.3947 13.4681L15.1003 17.5107C15.1141 17.5876 15.1056 17.6668 15.0759 17.7393C15.0461 17.8117 14.9962 17.8745 14.9319 17.9204C14.8676 17.9663 14.7915 17.9936 14.7122 17.999C14.6329 18.0044 14.5537 17.9878 14.4835 17.9511L10.7894 16.0415C10.546 15.9158 10.2752 15.8502 10.0003 15.8502C9.7254 15.8502 9.45459 15.9158 9.21119 16.0415L5.51792 17.9511C5.44779 17.9876 5.36865 18.004 5.2895 17.9985C5.21035 17.993 5.13437 17.9657 5.0702 17.9198C5.00603 17.8739 4.95624 17.8113 4.9265 17.7389C4.89676 17.6666 4.88827 17.5875 4.90198 17.5107L5.60671 13.4689C5.65327 13.2021 5.6331 12.9281 5.54795 12.6706C5.4628 12.4132 5.31523 12.18 5.11796 11.9911L2.12943 9.13061C2.07231 9.07637 2.03183 9.00744 2.01261 8.93169C1.99339 8.85593 1.99619 8.77639 2.0207 8.70212C2.04521 8.62786 2.09045 8.56185 2.15125 8.51163C2.21205 8.4614 2.28598 8.42898 2.36461 8.41805L6.49623 7.82425C6.76842 7.78532 7.0269 7.68194 7.24943 7.52301C7.47197 7.36409 7.65189 7.15437 7.77372 6.91192L9.62075 3.23193Z" stroke="#A6A6A6" stroke-linecap="round" stroke-linejoin="round"/>
</svg>
